<svg width="170" height="48" viewBox="0 0 170 48" fill="none" xmlns="http://www.w3.org/2000/svg">
<path fill-rule="evenodd" clip-rule="evenodd" d="M23.7529 43.0376C25.6859 43.0376 27.2529 41.4781 27.2529 39.5543C27.2529 37.6306 25.6859 36.071 23.7529 36.071C21.8199 36.071 20.2529 37.6306 20.2529 39.5543C20.2529 41.4781 21.8199 43.0376 23.7529 43.0376ZM23.753 41.4891C24.8269 41.4891 25.6974 40.6227 25.6974 39.554C25.6974 38.4852 24.8269 37.6188 23.753 37.6188C22.6791 37.6188 21.8085 38.4852 21.8085 39.554C21.8085 40.6227 22.6791 41.4891 23.753 41.4891Z" fill="#FFB71A"/>
<path fill-rule="evenodd" clip-rule="evenodd" d="M35.7529 43.0376C37.6859 43.0376 39.2529 41.4781 39.2529 39.5543C39.2529 37.6306 37.6859 36.071 35.7529 36.071C33.8199 36.071 32.2529 37.6306 32.2529 39.5543C32.2529 41.4781 33.8199 43.0376 35.7529 43.0376ZM35.753 41.4891C36.8269 41.4891 37.6974 40.6227 37.6974 39.554C37.6974 38.4852 36.8269 37.6188 35.753 37.6188C34.6791 37.6188 33.8085 38.4852 33.8085 39.554C33.8085 40.6227 34.6791 41.4891 35.753 41.4891Z" fill="#FFB71A"/>
<path d="M1.25261 12.6864L6.9219 12.6855C7.7284 12.6854 8.45705 13.1665 8.77103 13.9065L17.2352 33.8546C17.5491 34.5944 18.2776 35.0755 19.084 35.0755L44.7529 35.0759" stroke="#FFB71A" stroke-width="2.5" stroke-linecap="round"/>
<path d="M19.5613 25.3774C19.2441 24.1146 20.199 22.8901 21.5011 22.8901H29.9413C30.4909 22.8901 30.9365 23.3357 30.9365 23.8854C30.9365 24.435 30.4909 24.8806 29.9413 24.8806H25.9317C25.3821 24.8806 24.9365 25.3262 24.9365 25.8758C24.9365 26.4255 25.3821 26.871 25.9317 26.871H36.9413C37.4909 26.871 37.9365 27.3166 37.9365 27.8663C37.9365 28.4159 37.4909 28.8615 36.9413 28.8615H31.9317C31.3821 28.8615 30.9365 29.3071 30.9365 29.8567C30.9365 30.4064 31.3821 30.8519 31.9317 30.8519H42.9413C43.4909 30.8519 43.9365 31.2975 43.9365 31.8472C43.9365 32.3968 43.4909 32.8424 42.9413 32.8424H22.9963C22.0794 32.8424 21.2799 32.2189 21.0565 31.3297L19.5613 25.3774Z" fill="#064BEF"/>
<path d="M43.3117 22.3934C43.6289 23.6562 42.6741 24.8806 41.372 24.8806H32.9317C32.3821 24.8806 31.9365 24.435 31.9365 23.8854C31.9365 23.3357 32.3821 22.8902 32.9317 22.8902H36.9413C37.4909 22.8902 37.9365 22.4446 37.9365 21.8949C37.9365 21.3453 37.4909 20.8997 36.9413 20.8997H25.9317C25.3821 20.8997 24.9365 20.4541 24.9365 19.9045C24.9365 19.3548 25.3821 18.9093 25.9317 18.9093H30.9413C31.4909 18.9093 31.9365 18.4637 31.9365 17.914C31.9365 17.3644 31.4909 16.9188 30.9413 16.9188H19.9317C19.3821 16.9188 18.9365 16.4732 18.9365 15.9236C18.9365 15.3739 19.3821 14.9284 19.9317 14.9284L39.8768 14.9284C40.7937 14.9284 41.5931 15.5518 41.8165 16.4411L43.3117 22.3934Z" fill="#EFAE1A"/>
<path d="M65.5615 24.3426V24.7176H66.6365V24.9676H65.5115V25.2176H65.9865V25.7176H66.0615V26.2176H66.5365V26.4676H65.8615V26.6426C65.8615 26.726 65.8532 26.7926 65.8365 26.8426H65.7115C65.6449 27.026 65.5449 27.151 65.4115 27.2176H65.6365C65.5532 27.2843 65.4365 27.3176 65.2865 27.3176H62.4365V27.5926H62.3365V28.0926H62.1615V28.3426H62.4865V28.5926H62.4365V28.8426H61.9865V29.3426H63.6365V29.8426H65.5115V30.3426H63.5365V30.5926H66.0865V30.9676H62.6865V31.0926H61.9115V31.5926H63.1365V31.8426H63.6115V31.9676H63.8615V32.4676H62.8365V32.8426H63.9365V33.3426H63.9865V33.8426H62.9365V34.2176H62.8365V34.3426H62.4365V34.8426H61.5615V35.3426H62.1865C62.1532 35.576 62.0532 35.7426 61.8865 35.8426H62.1115C62.0282 35.9093 61.9115 35.9426 61.7615 35.9426H57.3865C57.2365 35.9426 57.1199 35.9093 57.0365 35.8426H56.7865C56.6199 35.7426 56.5199 35.576 56.4865 35.3426H55.8365V34.8426H56.7115V34.3426H57.1115V34.2176H57.2115V33.8426H58.2615V33.3426H58.2115V32.8426H57.1115V32.4676H58.1365V31.9676H57.8865V31.8426H57.4115V31.5926H56.1865V31.0926H56.9615V30.9676H60.3615V30.5926H57.8115V30.3426H59.7865V29.8426H57.9115V29.3426H56.2615V28.8426H56.7115V28.5926H56.7615V28.3426H56.4365V28.0926H56.6115V27.5926H56.7115V27.3176H54.9865C54.8365 27.3176 54.7199 27.2843 54.6365 27.2176H54.4115C54.2782 27.151 54.1782 27.026 54.1115 26.8426H54.2615C54.2449 26.8093 54.2282 26.776 54.2115 26.7426C54.2115 26.7093 54.2115 26.676 54.2115 26.6426V26.4676H54.8865V26.2176H54.4115V25.7176H54.3365V25.2176H53.8615V24.9676H54.9865V24.7176H53.9115V24.3426H54.3365V24.0926H54.3115V23.7176H54.5115V23.6176C54.5115 23.501 54.5365 23.4093 54.5865 23.3426H55.8115C55.9282 23.076 56.1282 22.9426 56.4115 22.9426H58.1365V22.8426H58.5365V22.3426H55.8115V22.0926H57.0365C57.0532 22.0593 57.0615 22.0176 57.0615 21.9676H56.8365C56.8365 21.901 56.8365 21.8426 56.8365 21.7926C56.8532 21.726 56.8699 21.6593 56.8865 21.5926H56.6865C56.7032 21.5093 56.7199 21.426 56.7365 21.3426C56.7532 21.2426 56.7699 21.1593 56.7865 21.0926H56.7365C56.7365 21.0593 56.7365 21.0343 56.7365 21.0176C56.7532 21.001 56.7615 20.9843 56.7615 20.9676H56.9365C56.9365 20.9343 56.9365 20.9093 56.9365 20.8926C56.9532 20.876 56.9615 20.8593 56.9615 20.8426H56.9115C56.9282 20.776 56.9449 20.7176 56.9615 20.6676C56.9782 20.601 56.9949 20.5343 57.0115 20.4676H57.0365C57.0699 20.3843 57.1032 20.301 57.1365 20.2176C57.1699 20.1176 57.2115 20.0343 57.2615 19.9676H57.3615C57.3949 19.8843 57.4365 19.801 57.4865 19.7176H56.9865C57.0865 19.551 57.2032 19.3843 57.3365 19.2176H57.0115L57.3865 18.8426H57.8865C57.9699 18.776 58.0449 18.7176 58.1115 18.6676C58.1949 18.601 58.2782 18.5343 58.3615 18.4676H58.2115C58.4449 18.301 58.6782 18.176 58.9115 18.0926H58.8865C58.9365 18.0593 58.9865 18.0343 59.0365 18.0176C59.0865 18.001 59.1365 17.9843 59.1865 17.9676H58.7865C59.3199 17.7676 59.8949 17.6343 60.5115 17.5676C61.1282 17.4843 61.7699 17.4426 62.4365 17.4426H64.7615C65.1282 17.4426 65.3532 17.6176 65.4365 17.9676H65.8115C65.8282 18.001 65.8365 18.0426 65.8365 18.0926H65.8615V18.4676H66.0115V18.8426H65.5115V19.2176H65.8365V19.7176H66.3365V19.9676H66.2365V20.4676H66.2115V20.8426H66.2615V20.9676H66.1115V21.0926H66.1365V21.1426C66.1365 21.326 66.0782 21.476 65.9615 21.5926H66.1615C66.0449 21.7426 65.8699 21.8176 65.6365 21.8176H63.6115C63.2949 21.8176 63.0615 21.8676 62.9115 21.9676H63.1115C63.0782 21.9843 63.0282 22.026 62.9615 22.0926H61.7365C61.6532 22.176 61.6032 22.2593 61.5865 22.3426H64.3115C64.2949 22.3926 64.2782 22.4426 64.2615 22.4926C64.2615 22.5426 64.2615 22.5926 64.2615 22.6426V22.8426H63.8615V22.9426H66.7115C67.0115 22.9426 67.2199 23.076 67.3365 23.3426H66.1115C66.1449 23.4426 66.1615 23.5343 66.1615 23.6176V23.7176H65.9615V24.0926H65.9865V24.3426H65.5615ZM80.2709 34.5926V34.8426H82.4459V35.2676C82.4459 35.301 82.4376 35.326 82.4209 35.3426H81.2459C81.2126 35.576 81.1042 35.7426 80.9209 35.8426H80.6959C80.6126 35.9093 80.4959 35.9426 80.3459 35.9426H75.9709C75.8209 35.9426 75.7042 35.9093 75.6209 35.8426H75.8209C75.6542 35.726 75.5542 35.5593 75.5209 35.3426H76.7209V34.8426H75.7209C75.6376 34.926 75.5459 35.0093 75.4459 35.0926C75.3626 35.176 75.2709 35.2593 75.1709 35.3426H74.8959C74.5959 35.5593 74.2959 35.726 73.9959 35.8426H73.1959C73.0792 35.8926 72.9459 35.9343 72.7959 35.9676C72.6626 36.0176 72.5209 36.0593 72.3709 36.0926H72.1709C72.0042 36.126 71.8292 36.151 71.6459 36.1676C71.4792 36.1843 71.3042 36.1926 71.1209 36.1926C70.9209 36.1926 70.7209 36.1843 70.5209 36.1676C70.3376 36.151 70.1542 36.126 69.9709 36.0926H70.1709C70.0042 36.0593 69.8376 36.0176 69.6709 35.9676C69.5209 35.9343 69.3709 35.8926 69.2209 35.8426H69.9959C69.6292 35.7093 69.2959 35.5426 68.9959 35.3426H69.2709C69.1542 35.2593 69.0459 35.176 68.9459 35.0926C68.8459 35.0093 68.7459 34.926 68.6459 34.8426H67.3959L67.1709 34.5926C67.1542 34.5593 67.1292 34.5176 67.0959 34.4676C67.0626 34.4176 67.0292 34.376 66.9959 34.3426H67.7459C67.7126 34.276 67.6709 34.2176 67.6209 34.1676C67.5876 34.101 67.5542 34.0343 67.5209 33.9676H67.2959C67.2959 33.951 67.2792 33.9093 67.2459 33.8426H67.0209L66.9459 33.7176H66.9709L66.8209 33.3426H66.6959C66.6792 33.276 66.6626 33.2176 66.6459 33.1676C66.6292 33.101 66.6126 33.0343 66.5959 32.9676H65.6459C65.5959 32.7843 65.5709 32.6176 65.5709 32.4676H66.3959V32.2176C66.3959 32.1343 66.3959 32.051 66.3959 31.9676C66.3959 31.8676 66.4042 31.7843 66.4209 31.7176H67.1709C67.1876 31.6343 67.2042 31.551 67.2209 31.4676C67.2376 31.3676 67.2542 31.2843 67.2709 31.2176H66.5709L66.6209 31.0926H66.6459L66.6959 30.9676H66.6709C66.7042 30.901 66.7376 30.8426 66.7709 30.7926C66.8042 30.726 66.8292 30.6593 66.8459 30.5926H65.3709L65.5209 30.3426H64.9709C65.0209 30.2926 65.0542 30.251 65.0709 30.2176H65.9709C66.0042 30.1843 66.0376 30.1426 66.0709 30.0926C66.1042 30.0426 66.1376 30.001 66.1709 29.9676H66.2209C66.3876 29.7676 66.5626 29.601 66.7459 29.4676H64.6959C64.8126 29.3843 64.9376 29.301 65.0709 29.2176C65.1876 29.1176 65.3126 29.0343 65.4459 28.9676H66.8209L67.0459 28.8426H67.7459C67.7792 28.8093 67.8209 28.7843 67.8709 28.7676C67.9209 28.751 67.9626 28.7343 67.9959 28.7176H68.2959C68.5959 28.5676 68.9209 28.4426 69.2709 28.3426H70.7959C71.0292 28.2593 71.2626 28.1926 71.4959 28.1426C71.7459 28.076 72.0042 28.0176 72.2709 27.9676H71.6459L72.0459 27.8926L74.6959 27.4676V27.3426H75.9709V27.2176H73.5709V27.0926H74.9959C74.9959 27.0093 74.9959 26.9426 74.9959 26.8926C74.9959 26.826 74.9876 26.7676 74.9709 26.7176C74.9542 26.5676 74.8959 26.4426 74.7959 26.3426H74.3709C74.3542 26.326 74.3126 26.301 74.2459 26.2676L74.0709 26.3426H73.6459C73.5792 26.3926 73.5126 26.451 73.4459 26.5176C73.3792 26.5676 73.3042 26.6343 73.2209 26.7176H73.2459C73.0626 26.901 72.8292 26.9926 72.5459 26.9926H68.2959C68.0459 26.9926 67.8792 26.901 67.7959 26.7176H67.7709C67.7209 26.6343 67.7042 26.5426 67.7209 26.4426V26.3426H68.1209C68.1376 26.3093 68.1459 26.2676 68.1459 26.2176H66.5459C66.5459 26.151 66.5626 26.0676 66.5959 25.9676H70.1959C70.1959 25.951 70.2126 25.9093 70.2459 25.8426H68.0209C68.0709 25.676 68.1459 25.5093 68.2459 25.3426H68.6709C68.7209 25.2593 68.7792 25.176 68.8459 25.0926C68.9126 25.0093 68.9792 24.926 69.0459 24.8426H67.1709L67.3959 24.5926H71.0209C71.0876 24.526 71.1542 24.4676 71.2209 24.4176C71.3042 24.351 71.3792 24.2843 71.4459 24.2176H69.1459L69.2959 24.0926H68.5959C68.6792 24.026 68.7709 23.9676 68.8709 23.9176C68.9709 23.851 69.0709 23.7843 69.1709 23.7176H70.3459C70.6959 23.5176 71.0626 23.351 71.4459 23.2176H71.6209C72.0709 23.051 72.5709 22.926 73.1209 22.8426C73.6876 22.7426 74.3042 22.6926 74.9709 22.6926C76.3376 22.6926 77.4959 22.8676 78.4459 23.2176H78.2459C78.4292 23.2843 78.6042 23.3593 78.7709 23.4426C78.9542 23.526 79.1292 23.6176 79.2959 23.7176H78.1209L78.6459 24.0926H79.3459L79.4959 24.2176H81.7959L82.1709 24.5926H78.5459C78.5792 24.626 78.6126 24.6676 78.6459 24.7176C78.6792 24.7676 78.7126 24.8093 78.7459 24.8426H80.5959C80.6626 24.9093 80.7209 24.9926 80.7709 25.0926C80.8376 25.176 80.8876 25.2593 80.9209 25.3426H80.5209L80.7459 25.8426H82.9709C83.0042 25.9093 83.0209 25.951 83.0209 25.9676H79.4209C79.4542 26.001 79.4709 26.0426 79.4709 26.0926C79.4876 26.1426 79.5042 26.1843 79.5209 26.2176H80.3459C80.3459 26.2343 80.3459 26.251 80.3459 26.2676C80.3626 26.2843 80.3709 26.3093 80.3709 26.3426H80.7959L80.9459 27.0926H79.4959C79.4959 27.1093 79.4959 27.126 79.4959 27.1426C79.5126 27.1593 79.5209 27.1843 79.5209 27.2176H81.9209V27.3426H80.6709V27.4676C80.6876 27.551 80.6959 27.6343 80.6959 27.7176C80.6959 27.801 80.6959 27.8843 80.6959 27.9676H81.3459V28.3426H79.7959V28.7176H79.5209V28.8426H78.8459V28.9676H77.4709V29.4676H79.5209V29.9676H79.4709V30.2176H78.5709V30.3426H79.1209V30.5926H80.7709V30.9676H80.4709V31.2176H80.6709V31.7176H80.5209V32.4676H79.6959V32.9676H80.6459V33.3426H80.7709V33.8426H80.9959V33.9676H81.1959V34.3426H80.4209V34.5926H80.2709ZM73.0209 26.1926C72.9042 26.1926 72.8209 26.201 72.7709 26.2176H73.2959C73.2459 26.201 73.1542 26.1926 73.0209 26.1926ZM73.1959 30.5426L72.9709 30.5926H73.1959V30.5426ZM72.3459 31.2176H73.0459C72.8626 31.351 72.7709 31.5176 72.7709 31.7176H72.0209V31.7926C72.0209 31.9593 72.0792 32.101 72.1959 32.2176C72.2792 32.3343 72.4459 32.4176 72.6959 32.4676H73.2959C73.5459 32.4176 73.7626 32.3343 73.9459 32.2176C74.0959 32.0843 74.2376 31.9176 74.3709 31.7176H74.4959C74.5292 31.6343 74.5626 31.5593 74.5959 31.4926C74.6292 31.4093 74.6542 31.3176 74.6709 31.2176H74.4709C74.4709 31.1843 74.4709 31.1593 74.4709 31.1426C74.4876 31.126 74.4959 31.1093 74.4959 31.0926H74.5209V30.9676H74.8209C74.8376 30.901 74.8459 30.8426 74.8459 30.7926C74.8459 30.726 74.8459 30.6593 74.8459 30.5926H74.4209L73.1959 30.8676C73.1292 30.8843 73.0626 30.901 72.9959 30.9176C72.9459 30.9343 72.8959 30.951 72.8459 30.9676C72.7959 30.9843 72.7459 31.001 72.6959 31.0176C72.6459 31.0343 72.6042 31.0593 72.5709 31.0926H72.5459C72.5126 31.1093 72.4792 31.126 72.4459 31.1426C72.4126 31.1593 72.3792 31.1843 72.3459 31.2176ZM72.4709 32.4676H71.8459C71.9126 32.4843 72.0126 32.4926 72.1459 32.4926C72.1959 32.4926 72.2459 32.4926 72.2959 32.4926C72.3626 32.4926 72.4209 32.4843 72.4709 32.4676ZM97.0977 33.7176H96.0727C95.9727 33.8843 95.856 34.051 95.7227 34.2176H96.1727C96.156 34.251 96.1227 34.2926 96.0727 34.3426H94.9727C94.906 34.4093 94.8393 34.476 94.7727 34.5426C94.7227 34.5926 94.656 34.651 94.5727 34.7176H94.5477C94.4643 34.7843 94.3727 34.851 94.2727 34.9176C94.1893 34.9676 94.0977 35.026 93.9977 35.0926H93.5477C93.3977 35.1926 93.231 35.2843 93.0477 35.3676C92.8643 35.4343 92.681 35.5093 92.4977 35.5926H92.3977C92.3477 35.6093 92.2893 35.626 92.2227 35.6426C92.1727 35.6593 92.106 35.6843 92.0227 35.7176H94.8727C94.806 35.7343 94.731 35.751 94.6477 35.7676C94.581 35.7843 94.506 35.8093 94.4227 35.8426H93.1727C92.956 35.8926 92.731 35.9343 92.4977 35.9676C92.2643 36.0176 92.0227 36.0593 91.7727 36.0926H91.0227C90.756 36.126 90.4727 36.151 90.1727 36.1676C89.8727 36.1843 89.556 36.1926 89.2227 36.1926C88.906 36.1926 88.606 36.1843 88.3227 36.1676C88.056 36.151 87.7977 36.126 87.5477 36.0926H88.2727C88.0393 36.0593 87.8143 36.0176 87.5977 35.9676C87.381 35.9343 87.1727 35.8926 86.9727 35.8426H88.2227L87.7977 35.7176H84.9477C84.8977 35.6843 84.8393 35.6593 84.7727 35.6426C84.7227 35.626 84.6643 35.6093 84.5977 35.5926H84.6727C84.4893 35.5093 84.306 35.426 84.1227 35.3426C83.956 35.2593 83.7893 35.176 83.6227 35.0926H84.0727C83.9727 35.026 83.8727 34.9676 83.7727 34.9176C83.6893 34.851 83.606 34.7843 83.5227 34.7176H83.5727C83.4893 34.651 83.4143 34.5926 83.3477 34.5426C83.281 34.476 83.2143 34.4093 83.1477 34.3426H84.2227C84.206 34.3093 84.1893 34.2843 84.1727 34.2676C84.156 34.251 84.1393 34.2343 84.1227 34.2176H83.6477C83.581 34.1343 83.5143 34.051 83.4477 33.9676C83.381 33.8843 83.3143 33.801 83.2477 33.7176H84.2977C84.231 33.6343 84.181 33.551 84.1477 33.4676C84.1143 33.3676 84.081 33.2843 84.0477 33.2176H83.5727C83.5393 33.151 83.5227 33.1093 83.5227 33.0926H82.7477L82.6727 32.8426H82.0977C82.081 32.7926 82.0727 32.7176 82.0727 32.6176C82.0727 32.4843 82.081 32.3926 82.0977 32.3426H82.2727C82.356 32.1426 82.4893 32.0176 82.6727 31.9676H82.6227C82.656 31.951 82.7143 31.9426 82.7977 31.9426H87.2477C87.2643 31.9426 87.281 31.951 87.2977 31.9676C87.331 31.9676 87.356 31.9676 87.3727 31.9676H87.4227C87.556 32.001 87.6727 32.051 87.7727 32.1176C87.8893 32.1843 88.006 32.2593 88.1227 32.3426H87.9727C88.106 32.426 88.2477 32.5093 88.3977 32.5926C88.5477 32.6593 88.7227 32.6926 88.9227 32.6926C89.056 32.6926 89.181 32.6676 89.2977 32.6176C89.4143 32.551 89.481 32.4593 89.4977 32.3426H89.5727V32.3176C89.5727 32.1676 89.5393 32.051 89.4727 31.9676C89.406 31.8676 89.2977 31.7843 89.1477 31.7176H88.8477C88.681 31.6343 88.456 31.551 88.1727 31.4676C87.906 31.3843 87.531 31.301 87.0477 31.2176H87.2727L86.8727 31.1426C86.7393 31.1093 86.606 31.0843 86.4727 31.0676C86.3393 31.0343 86.206 31.001 86.0727 30.9676H86.1727L85.7477 30.8426H85.7977C85.581 30.776 85.3727 30.701 85.1727 30.6176C84.9727 30.5343 84.781 30.4426 84.5977 30.3426H84.6977L84.0977 29.9676H84.0477C83.931 29.8843 83.8227 29.801 83.7227 29.7176C83.6393 29.6343 83.556 29.551 83.4727 29.4676H82.9477C82.931 29.4343 82.9143 29.4093 82.8977 29.3926C82.881 29.376 82.8643 29.3593 82.8477 29.3426H83.0727C83.0227 29.2926 82.9893 29.251 82.9727 29.2176H82.2727L81.9977 28.8426H83.0727L82.9227 28.5926H82.5727C82.4893 28.4093 82.4227 28.2426 82.3727 28.0926H82.5227C82.5227 28.0593 82.5143 28.0343 82.4977 28.0176C82.4977 28.001 82.4977 27.9843 82.4977 27.9676H83.6727C83.6727 27.901 83.656 27.8176 83.6227 27.7176H81.4227C81.4227 27.651 81.4227 27.5926 81.4227 27.5426C81.406 27.476 81.3893 27.4093 81.3727 27.3426H81.3977L81.3727 27.0926H83.0477C83.031 27.0593 83.0227 27.0176 83.0227 26.9676C83.0227 26.901 83.0227 26.8426 83.0227 26.7926C83.0393 26.726 83.0477 26.6593 83.0477 26.5926H81.8727L81.8977 26.3426H83.0227L83.0977 26.0926H82.5977C82.6143 26.0593 82.631 26.0176 82.6477 25.9676C82.6643 25.9176 82.681 25.876 82.6977 25.8426H82.4977C82.531 25.776 82.5643 25.7176 82.5977 25.6676C82.631 25.601 82.656 25.5343 82.6727 25.4676H82.7727L82.9227 25.2176H82.8977C82.931 25.151 82.9727 25.0926 83.0227 25.0426C83.0727 24.976 83.1227 24.9093 83.1727 24.8426C83.2227 24.776 83.2727 24.7176 83.3227 24.6676C83.3727 24.601 83.431 24.5343 83.4977 24.4676H83.4477L83.5727 24.3426H83.5477C83.5643 24.3093 83.581 24.2843 83.5977 24.2676C83.631 24.251 83.656 24.2343 83.6727 24.2176H83.7227L84.0227 23.9676C84.056 23.9343 84.081 23.9093 84.0977 23.8926C84.131 23.876 84.1643 23.8593 84.1977 23.8426H83.7227C84.006 23.6593 84.3143 23.4926 84.6477 23.3426H85.4227C85.4727 23.3093 85.5227 23.2843 85.5727 23.2676C85.6227 23.251 85.681 23.2343 85.7477 23.2176H84.0477C84.1143 23.1843 84.1727 23.1593 84.2227 23.1426C84.2893 23.126 84.356 23.1093 84.4227 23.0926H85.4977C85.9143 22.9593 86.356 22.8593 86.8227 22.7926C87.306 22.726 87.8143 22.6926 88.3477 22.6926C88.8977 22.6926 89.4143 22.726 89.8977 22.7926C90.381 22.8593 90.831 22.9593 91.2477 23.0926H90.1727C90.2393 23.1093 90.2977 23.126 90.3477 23.1426C90.4143 23.1593 90.481 23.1843 90.5477 23.2176H92.2227L92.5727 23.3426H91.7977C91.981 23.4093 92.156 23.4926 92.3227 23.5926C92.4893 23.676 92.6477 23.7593 92.7977 23.8426H93.2727L93.4727 23.9676H93.4977C93.5643 24.001 93.6227 24.0426 93.6727 24.0926C93.7393 24.1426 93.7977 24.1843 93.8477 24.2176H93.8227L93.9727 24.3426H93.9977L94.1477 24.4676H94.1977C94.3477 24.5843 94.4727 24.7093 94.5727 24.8426C94.706 24.9593 94.806 25.0843 94.8727 25.2176H94.8977L95.0477 25.4676H94.9227C94.956 25.5343 94.9893 25.601 95.0227 25.6676C95.056 25.7176 95.081 25.776 95.0977 25.8426H95.2727L95.3477 26.0926H95.8227L95.8477 26.2676V26.3426H96.2727C96.2727 26.4093 96.256 26.4926 96.2227 26.5926C96.106 26.826 95.9393 26.9426 95.7227 26.9426H91.5227C91.356 26.9426 91.1977 26.9093 91.0477 26.8426C90.9143 26.7593 90.781 26.676 90.6477 26.5926C90.531 26.5093 90.3977 26.426 90.2477 26.3426H89.8227C89.656 26.2426 89.4727 26.1926 89.2727 26.1926C89.106 26.1926 88.9727 26.2426 88.8727 26.3426H87.7727C87.6893 26.426 87.6477 26.5093 87.6477 26.5926H88.8227C88.8227 26.676 88.8393 26.7593 88.8727 26.8426C88.906 26.926 88.981 27.0093 89.0977 27.0926H87.4477C87.531 27.126 87.6227 27.1676 87.7227 27.2176C87.8227 27.2676 87.9477 27.3093 88.0977 27.3426H88.0727C88.2727 27.4093 88.5227 27.4676 88.8227 27.5176C89.1393 27.5676 89.506 27.626 89.9227 27.6926C89.956 27.6926 89.981 27.701 89.9977 27.7176C90.031 27.7176 90.056 27.7176 90.0727 27.7176H92.2727C92.4727 27.751 92.6643 27.7926 92.8477 27.8426C93.0477 27.876 93.231 27.9176 93.3977 27.9676H92.2227C92.2893 27.9843 92.3477 28.001 92.3977 28.0176C92.4643 28.0343 92.531 28.0593 92.5977 28.0926H92.4477C92.6643 28.1593 92.856 28.2343 93.0227 28.3176C93.206 28.401 93.381 28.4926 93.5477 28.5926H93.9227L94.3227 28.8426H93.2477C93.331 28.9093 93.4143 28.976 93.4977 29.0426C93.581 29.0926 93.656 29.151 93.7227 29.2176H94.4227L94.5477 29.3426H94.3227L94.4477 29.4676H94.9477C95.131 29.651 95.2643 29.8176 95.3477 29.9676H95.3977C95.4477 30.0343 95.4893 30.101 95.5227 30.1676C95.556 30.2176 95.5893 30.276 95.6227 30.3426H95.5227C95.556 30.426 95.5893 30.5093 95.6227 30.5926C95.6727 30.676 95.706 30.7593 95.7227 30.8426H95.6477L95.6977 30.9676H95.5977C95.6143 31.001 95.6227 31.0426 95.6227 31.0926C95.6227 31.1426 95.631 31.1843 95.6477 31.2176H95.4227C95.4727 31.3843 95.4977 31.551 95.4977 31.7176H95.8227V31.8926C95.8227 31.9593 95.8143 32.0343 95.7977 32.1176C95.7977 32.1843 95.7977 32.2593 95.7977 32.3426H95.7227C95.706 32.426 95.6893 32.5093 95.6727 32.5926C95.6727 32.676 95.656 32.7593 95.6227 32.8426H96.1977C96.1977 32.926 96.1727 33.0093 96.1227 33.0926H96.9227C96.8893 33.1593 96.8727 33.201 96.8727 33.2176H97.3477C97.3143 33.301 97.2727 33.3843 97.2227 33.4676C97.1893 33.551 97.1477 33.6343 97.0977 33.7176ZM109.246 33.0926H108.646V33.3426H109.546V33.5926H110.371V33.9676H109.796V34.3426H111.471V34.7176H108.746V35.2176H108.946V35.2676C108.946 35.301 108.938 35.326 108.921 35.3426C108.888 35.5093 108.829 35.6343 108.746 35.7176H108.546C108.479 35.7843 108.429 35.826 108.396 35.8426H109.246C109.163 35.9093 109.046 35.9426 108.896 35.9426H106.071C105.788 35.9426 105.504 35.9343 105.221 35.9176C104.954 35.901 104.696 35.876 104.446 35.8426H103.596C103.479 35.826 103.363 35.8093 103.246 35.7926C103.129 35.7593 103.004 35.7343 102.871 35.7176H103.071C102.854 35.6676 102.646 35.6093 102.446 35.5426C102.263 35.476 102.079 35.4093 101.896 35.3426H101.921C101.871 35.3093 101.821 35.2843 101.771 35.2676C101.721 35.251 101.679 35.2343 101.646 35.2176H101.446C101.313 35.1343 101.179 35.0593 101.046 34.9926C100.913 34.9093 100.779 34.8176 100.646 34.7176H103.396C103.329 34.651 103.254 34.5926 103.171 34.5426C103.104 34.476 103.038 34.4093 102.971 34.3426H101.296L100.971 33.9676H101.571C101.521 33.901 101.471 33.8426 101.421 33.7926C101.388 33.726 101.354 33.6593 101.321 33.5926H100.496L100.346 33.3426H99.4461C99.4294 33.3093 99.4128 33.2676 99.3961 33.2176C99.3794 33.1676 99.3544 33.126 99.3211 33.0926H99.9461L99.7961 32.7176H100.296L100.221 32.4676C100.188 32.3676 100.171 32.2843 100.171 32.2176H102.146C102.129 32.151 102.113 32.0926 102.096 32.0426C102.096 31.976 102.096 31.9093 102.096 31.8426H99.2461C99.2461 31.8093 99.2378 31.7843 99.2211 31.7676C99.2211 31.751 99.2211 31.7343 99.2211 31.7176H99.1461C99.1461 31.651 99.1378 31.5926 99.1211 31.5426C99.1211 31.476 99.1211 31.4093 99.1211 31.3426H99.0461C99.0461 31.276 99.0378 31.2176 99.0211 31.1676C99.0211 31.101 99.0211 31.0343 99.0211 30.9676H99.3711V30.8426H99.1461V30.5926H98.9461V30.0926H99.2461V29.5926H98.9461V29.2176H99.1711V28.9676H99.1961V28.5926H99.3211V27.7176H99.3711V27.3426H99.4961V27.3176H97.5211C97.2711 27.3176 97.0711 27.201 96.9211 26.9676H97.2961C97.2461 26.8676 97.2211 26.7593 97.2211 26.6426V26.4676H96.4211V26.0926H96.5961V25.5926H96.4711V25.3426H96.5211V25.0926H96.8961V24.9676H96.2711V24.5926H97.0211V24.2176H96.8711V23.9676H96.6961V23.5926H96.5461V23.4676H96.4711C96.5211 23.2176 96.6794 23.051 96.9461 22.9676H97.0961C97.1461 22.951 97.2128 22.9426 97.2961 22.9426H99.2711V22.8426H99.3711V22.4676H99.1711V22.2176H99.1461V21.8426H99.0461V21.7176H98.4461V21.4676H97.8711V21.3426H98.0711V21.2176H98.6461V20.7176H98.8711V20.4676H98.0711V20.2176H99.2961V19.8426H99.1711V19.7176H98.8961V19.4676H99.1461V19.3426H98.8961V18.9676H99.1211V18.8676C99.1211 18.7843 99.1378 18.6926 99.1711 18.5926H99.4961C99.6128 18.326 99.8211 18.1926 100.121 18.1926H104.496C104.763 18.1926 104.971 18.326 105.121 18.5926H104.796C104.829 18.6926 104.846 18.7843 104.846 18.8676V18.9676H104.621V19.3426H104.871V19.4676H104.621V19.7176H104.896V19.8426H105.021V20.2176H103.796V20.4676H104.596V20.7176H104.371V21.2176H103.796V21.3426H103.596V21.4676H104.171V21.7176H104.771V21.8426H104.871V22.2176H104.896V22.4676H105.096V22.8426H104.996V22.9426H108.146C108.229 22.9426 108.288 22.951 108.321 22.9676H108.171C108.404 23.051 108.563 23.2176 108.646 23.4676H108.721C108.721 23.4843 108.721 23.501 108.721 23.5176C108.738 23.5343 108.746 23.5593 108.746 23.5926H108.896V23.9676H109.071V24.2176H109.221V24.5926H108.471V24.9676H109.096V25.0926H108.721V25.3426H108.671V25.5926H108.796V26.0926H108.621V26.4676H109.421V26.6426C109.421 26.7093 109.413 26.7676 109.396 26.8176C109.379 26.8676 109.354 26.9176 109.321 26.9676H108.971C108.821 27.201 108.621 27.3176 108.371 27.3176H105.221V27.3426H105.096V27.7176H105.046V28.5926H104.921V28.9676H104.896V29.2176H104.671V29.5926H104.971V30.0926H104.671C104.671 30.176 104.671 30.2593 104.671 30.3426C104.688 30.426 104.704 30.5093 104.721 30.5926H104.946C104.979 30.6926 105.013 30.776 105.046 30.8426H105.246L105.321 30.9676H104.971C105.154 31.201 105.438 31.3176 105.821 31.3176H108.096C108.179 31.3176 108.238 31.326 108.271 31.3426H108.346C108.546 31.3926 108.688 31.5176 108.771 31.7176H108.846C108.846 31.7343 108.846 31.751 108.846 31.7676C108.863 31.7843 108.871 31.8093 108.871 31.8426H111.721C111.721 31.8593 111.721 31.8843 111.721 31.9176C111.738 31.9343 111.746 31.9593 111.746 31.9926V32.2176H109.746V32.7176H109.246V33.0926ZM124.627 27.8426H126.327C126.327 27.8593 126.318 27.876 126.302 27.8926C126.285 27.9093 126.268 27.9343 126.252 27.9676H125.677C125.543 28.1343 125.36 28.2176 125.127 28.2176H120.252C120.018 28.2176 119.835 28.1343 119.702 27.9676H120.277L120.202 27.8426H118.477L118.402 27.7176C118.385 27.651 118.343 27.5676 118.277 27.4676H117.852C117.752 27.2843 117.643 27.1593 117.527 27.0926H118.152C118.018 27.0093 117.86 26.9676 117.677 26.9676C117.477 26.9676 117.31 27.0093 117.177 27.0926H116.652C116.518 27.1593 116.41 27.2843 116.327 27.4676H116.102C116.068 27.5343 116.035 27.6176 116.002 27.7176H117.352C117.335 27.751 117.327 27.7926 117.327 27.8426H118.002C117.985 27.876 117.977 27.9176 117.977 27.9676H118.802C118.785 28.001 118.777 28.0426 118.777 28.0926C118.777 28.1426 118.768 28.1843 118.752 28.2176H118.852V28.3426H117.877V28.5926H114.752V28.7176H119.552C119.535 28.801 119.527 28.8843 119.527 28.9676C119.527 29.051 119.527 29.1343 119.527 29.2176H115.102V29.3426H116.877V29.4676H116.402V29.9676H115.052C115.052 30.0343 115.052 30.101 115.052 30.1676C115.052 30.2176 115.06 30.276 115.077 30.3426V30.5926H116.577C116.577 30.7093 116.585 30.7926 116.602 30.8426H115.227C115.26 31.0593 115.293 31.226 115.327 31.3426H115.052C115.152 31.576 115.293 31.7426 115.477 31.8426H116.302C116.435 31.8926 116.577 31.9176 116.727 31.9176C116.91 31.9176 117.06 31.8926 117.177 31.8426H117.527C117.677 31.7593 117.818 31.5926 117.952 31.3426H117.277L117.352 31.1676C117.385 31.101 117.418 31.0426 117.452 30.9926C117.502 30.926 117.543 30.876 117.577 30.8426H119.327C119.477 30.726 119.643 30.6676 119.827 30.6676H124.702C124.868 30.6676 125.027 30.726 125.177 30.8426H123.427C123.593 30.976 123.66 31.1426 123.627 31.3426H124.302C124.285 31.4093 124.268 31.4843 124.252 31.5676C124.252 31.651 124.235 31.7426 124.202 31.8426H123.827L123.752 32.0926H125.352L125.302 32.2176H124.777L124.727 32.3426H121.952L121.877 32.4676H124.902L124.627 32.9676H124.877L124.802 33.0926H122.927C122.877 33.176 122.818 33.2593 122.752 33.3426C122.702 33.426 122.643 33.5093 122.577 33.5926H122.127C122.11 33.6093 122.093 33.626 122.077 33.6426C122.06 33.6593 122.043 33.6843 122.027 33.7176H123.752C123.735 33.7343 123.718 33.751 123.702 33.7676C123.685 33.7843 123.668 33.8093 123.652 33.8426H122.402C122.385 33.8593 122.368 33.876 122.352 33.8926C122.335 33.9093 122.31 33.9343 122.277 33.9676H123.327L123.077 34.2176H122.952L122.827 34.3426H123.127L122.827 34.5926H123.277C123.193 34.6593 123.102 34.726 123.002 34.7926C122.918 34.8426 122.827 34.901 122.727 34.9676H123.227L123.027 35.0926H122.477L122.027 35.3426H122.177C121.91 35.4926 121.61 35.6176 121.277 35.7176H120.852C120.702 35.7676 120.552 35.8176 120.402 35.8676C120.252 35.901 120.102 35.9343 119.952 35.9676H119.727C119.61 35.9843 119.493 36.001 119.377 36.0176C119.26 36.051 119.143 36.076 119.027 36.0926H119.527C119.293 36.126 119.052 36.151 118.802 36.1676C118.552 36.1843 118.293 36.1926 118.027 36.1926C117.777 36.1926 117.535 36.1843 117.302 36.1676C117.068 36.151 116.835 36.126 116.602 36.0926H116.077C115.96 36.076 115.843 36.051 115.727 36.0176C115.627 36.001 115.518 35.9843 115.402 35.9676H115.627C115.477 35.9343 115.327 35.901 115.177 35.8676C115.027 35.8176 114.885 35.7676 114.752 35.7176H115.177C114.86 35.6176 114.568 35.4926 114.302 35.3426H114.127C114.06 35.3093 113.985 35.276 113.902 35.2426C113.835 35.1926 113.768 35.1426 113.702 35.0926H114.227L114.027 34.9676H113.527L113.027 34.5926H112.602C112.552 34.5593 112.502 34.5176 112.452 34.4676C112.402 34.4176 112.36 34.376 112.327 34.3426H112.002L111.877 34.2176H112.002L111.752 33.9676H110.727C110.677 33.9176 110.643 33.876 110.627 33.8426H111.877C111.827 33.7926 111.793 33.751 111.777 33.7176H110.027C110.01 33.6843 109.977 33.6426 109.927 33.5926H110.377C110.31 33.5093 110.252 33.426 110.202 33.3426C110.152 33.2593 110.102 33.176 110.052 33.0926H111.927L111.852 32.9676H111.602C111.552 32.8843 111.502 32.801 111.452 32.7176C111.418 32.6343 111.385 32.551 111.352 32.4676H108.352L108.302 32.3426H111.077L111.027 32.2176H111.552L111.502 32.0926H109.902L109.827 31.8426H109.002C108.985 31.7593 108.968 31.676 108.952 31.5926C108.935 31.5093 108.918 31.426 108.902 31.3426H109.152L109.077 30.8426H110.452V30.5926H108.952V30.4676C108.935 30.3843 108.927 30.301 108.927 30.2176C108.927 30.1343 108.927 30.051 108.927 29.9676H110.277V29.4676H110.752V29.3426H108.977V29.2176H113.402V28.7176H108.627V28.5926H111.752V28.3426H112.727V28.2176H112.627C112.643 28.1843 112.652 28.1426 112.652 28.0926C112.652 28.0426 112.652 28.001 112.652 27.9676H111.852V27.8426H111.177C111.177 27.7926 111.185 27.751 111.202 27.7176H109.852C109.885 27.6176 109.902 27.5343 109.902 27.4676H110.152L110.227 27.0926H110.752L110.902 26.5926H110.952C110.968 26.526 110.993 26.4676 111.027 26.4176C111.06 26.351 111.085 26.2843 111.102 26.2176H110.977C111.01 26.1343 111.043 26.051 111.077 25.9676C111.127 25.8676 111.177 25.7843 111.227 25.7176H111.077C111.11 25.651 111.143 25.5926 111.177 25.5426C111.227 25.476 111.277 25.4093 111.327 25.3426H111.352C111.418 25.2593 111.485 25.176 111.552 25.0926C111.618 24.9926 111.685 24.9093 111.752 24.8426H111.777C111.877 24.7093 112.002 24.5843 112.152 24.4676H112.027L112.177 24.3426H112.127L112.277 24.2176H113.202C113.235 24.1843 113.268 24.1593 113.302 24.1426C113.335 24.126 113.36 24.1093 113.377 24.0926H112.827C112.86 24.0593 112.893 24.0343 112.927 24.0176C112.96 24.001 112.985 23.9843 113.002 23.9676H112.802C113.102 23.7676 113.393 23.601 113.677 23.4676H114.177C114.277 23.4176 114.377 23.376 114.477 23.3426C114.577 23.2926 114.677 23.251 114.777 23.2176H114.202C114.268 23.1843 114.327 23.1593 114.377 23.1426C114.443 23.126 114.51 23.1093 114.577 23.0926H114.552C114.635 23.0593 114.71 23.0343 114.777 23.0176C114.86 23.001 114.935 22.9843 115.002 22.9676H114.927C115.66 22.7843 116.427 22.6926 117.227 22.6926C117.677 22.6926 118.102 22.7176 118.502 22.7676C118.902 22.8176 119.277 22.8843 119.627 22.9676H119.702C119.785 22.9843 119.86 23.001 119.927 23.0176C120.01 23.0343 120.085 23.0593 120.152 23.0926H120.177C120.243 23.1093 120.302 23.126 120.352 23.1426C120.418 23.1593 120.485 23.1843 120.552 23.2176H121.127C121.377 23.301 121.585 23.3843 121.752 23.4676H121.227C121.393 23.5343 121.552 23.6176 121.702 23.7176C121.852 23.801 122.002 23.8843 122.152 23.9676H122.352C122.385 23.9843 122.418 24.001 122.452 24.0176C122.485 24.0343 122.51 24.0593 122.527 24.0926H123.077C123.11 24.1093 123.135 24.126 123.152 24.1426C123.185 24.1593 123.218 24.1843 123.252 24.2176H122.327L122.477 24.3426H122.527L122.677 24.4676H122.777C122.86 24.5343 122.935 24.601 123.002 24.6676C123.068 24.7176 123.135 24.776 123.202 24.8426H123.177C123.26 24.926 123.335 25.0093 123.402 25.0926C123.485 25.176 123.56 25.2593 123.627 25.3426H123.602C123.652 25.4093 123.702 25.476 123.752 25.5426C123.802 25.5926 123.843 25.651 123.877 25.7176H124.027C124.093 25.801 124.152 25.8843 124.202 25.9676C124.252 26.051 124.293 26.1343 124.327 26.2176H124.477C124.51 26.2843 124.543 26.351 124.577 26.4176C124.61 26.4676 124.635 26.526 124.652 26.5926H124.627C124.66 26.676 124.693 26.7593 124.727 26.8426C124.76 26.926 124.785 27.0093 124.802 27.0926H124.177L124.252 27.4676H124.677V27.7176L124.627 27.8426ZM139.329 34.5926V34.8426H141.504V35.2676C141.504 35.301 141.495 35.326 141.479 35.3426H140.304C140.27 35.576 140.162 35.7426 139.979 35.8426H139.754C139.67 35.9093 139.554 35.9426 139.404 35.9426H135.029C134.879 35.9426 134.762 35.9093 134.679 35.8426H134.879C134.712 35.726 134.612 35.5593 134.579 35.3426H135.779V34.8426H134.779C134.695 34.926 134.604 35.0093 134.504 35.0926C134.42 35.176 134.329 35.2593 134.229 35.3426H133.954C133.654 35.5593 133.354 35.726 133.054 35.8426H132.254C132.137 35.8926 132.004 35.9343 131.854 35.9676C131.72 36.0176 131.579 36.0593 131.429 36.0926H131.229C131.062 36.126 130.887 36.151 130.704 36.1676C130.537 36.1843 130.362 36.1926 130.179 36.1926C129.979 36.1926 129.779 36.1843 129.579 36.1676C129.395 36.151 129.212 36.126 129.029 36.0926H129.229C129.062 36.0593 128.895 36.0176 128.729 35.9676C128.579 35.9343 128.429 35.8926 128.279 35.8426H129.054C128.687 35.7093 128.354 35.5426 128.054 35.3426H128.329C128.212 35.2593 128.104 35.176 128.004 35.0926C127.904 35.0093 127.804 34.926 127.704 34.8426H126.454L126.229 34.5926C126.212 34.5593 126.187 34.5176 126.154 34.4676C126.12 34.4176 126.087 34.376 126.054 34.3426H126.804C126.77 34.276 126.729 34.2176 126.679 34.1676C126.645 34.101 126.612 34.0343 126.579 33.9676H126.354C126.354 33.951 126.337 33.9093 126.304 33.8426H126.079L126.004 33.7176H126.029L125.879 33.3426H125.754C125.737 33.276 125.72 33.2176 125.704 33.1676C125.687 33.101 125.67 33.0343 125.654 32.9676H124.704C124.654 32.7843 124.629 32.6176 124.629 32.4676H125.454V32.2176C125.454 32.1343 125.454 32.051 125.454 31.9676C125.454 31.8676 125.462 31.7843 125.479 31.7176H126.229C126.245 31.6343 126.262 31.551 126.279 31.4676C126.295 31.3676 126.312 31.2843 126.329 31.2176H125.629L125.679 31.0926H125.704L125.754 30.9676H125.729C125.762 30.901 125.795 30.8426 125.829 30.7926C125.862 30.726 125.887 30.6593 125.904 30.5926H124.429L124.579 30.3426H124.029C124.079 30.2926 124.112 30.251 124.129 30.2176H125.029C125.062 30.1843 125.095 30.1426 125.129 30.0926C125.162 30.0426 125.195 30.001 125.229 29.9676H125.279C125.445 29.7676 125.62 29.601 125.804 29.4676H123.754C123.87 29.3843 123.995 29.301 124.129 29.2176C124.245 29.1176 124.37 29.0343 124.504 28.9676H125.879L126.104 28.8426H126.804C126.837 28.8093 126.879 28.7843 126.929 28.7676C126.979 28.751 127.02 28.7343 127.054 28.7176H127.354C127.654 28.5676 127.979 28.4426 128.329 28.3426H129.854C130.087 28.2593 130.32 28.1926 130.554 28.1426C130.804 28.076 131.062 28.0176 131.329 27.9676H130.704L131.104 27.8926L133.754 27.4676V27.3426H135.029V27.2176H132.629V27.0926H134.054C134.054 27.0093 134.054 26.9426 134.054 26.8926C134.054 26.826 134.045 26.7676 134.029 26.7176C134.012 26.5676 133.954 26.4426 133.854 26.3426H133.429C133.412 26.326 133.37 26.301 133.304 26.2676L133.129 26.3426H132.704C132.637 26.3926 132.57 26.451 132.504 26.5176C132.437 26.5676 132.362 26.6343 132.279 26.7176H132.304C132.12 26.901 131.887 26.9926 131.604 26.9926H127.354C127.104 26.9926 126.937 26.901 126.854 26.7176H126.829C126.779 26.6343 126.762 26.5426 126.779 26.4426V26.3426H127.179C127.195 26.3093 127.204 26.2676 127.204 26.2176H125.604C125.604 26.151 125.62 26.0676 125.654 25.9676H129.254C129.254 25.951 129.27 25.9093 129.304 25.8426H127.079C127.129 25.676 127.204 25.5093 127.304 25.3426H127.729C127.779 25.2593 127.837 25.176 127.904 25.0926C127.97 25.0093 128.037 24.926 128.104 24.8426H126.229L126.454 24.5926H130.079C130.145 24.526 130.212 24.4676 130.279 24.4176C130.362 24.351 130.437 24.2843 130.504 24.2176H128.204L128.354 24.0926H127.654C127.737 24.026 127.829 23.9676 127.929 23.9176C128.029 23.851 128.129 23.7843 128.229 23.7176H129.404C129.754 23.5176 130.12 23.351 130.504 23.2176H130.679C131.129 23.051 131.629 22.926 132.179 22.8426C132.745 22.7426 133.362 22.6926 134.029 22.6926C135.395 22.6926 136.554 22.8676 137.504 23.2176H137.304C137.487 23.2843 137.662 23.3593 137.829 23.4426C138.012 23.526 138.187 23.6176 138.354 23.7176H137.179L137.704 24.0926H138.404L138.554 24.2176H140.854L141.229 24.5926H137.604C137.637 24.626 137.67 24.6676 137.704 24.7176C137.737 24.7676 137.77 24.8093 137.804 24.8426H139.654C139.72 24.9093 139.779 24.9926 139.829 25.0926C139.895 25.176 139.945 25.2593 139.979 25.3426H139.579L139.804 25.8426H142.029C142.062 25.9093 142.079 25.951 142.079 25.9676H138.479C138.512 26.001 138.529 26.0426 138.529 26.0926C138.545 26.1426 138.562 26.1843 138.579 26.2176H139.404C139.404 26.2343 139.404 26.251 139.404 26.2676C139.42 26.2843 139.429 26.3093 139.429 26.3426H139.854L140.004 27.0926H138.554C138.554 27.1093 138.554 27.126 138.554 27.1426C138.57 27.1593 138.579 27.1843 138.579 27.2176H140.979V27.3426H139.729V27.4676C139.745 27.551 139.754 27.6343 139.754 27.7176C139.754 27.801 139.754 27.8843 139.754 27.9676H140.404V28.3426H138.854V28.7176H138.579V28.8426H137.904V28.9676H136.529V29.4676H138.579V29.9676H138.529V30.2176H137.629V30.3426H138.179V30.5926H139.829V30.9676H139.529V31.2176H139.729V31.7176H139.579V32.4676H138.754V32.9676H139.704V33.3426H139.829V33.8426H140.054V33.9676H140.254V34.3426H139.479V34.5926H139.329ZM132.079 26.1926C131.962 26.1926 131.879 26.201 131.829 26.2176H132.354C132.304 26.201 132.212 26.1926 132.079 26.1926ZM132.254 30.5426L132.029 30.5926H132.254V30.5426ZM131.404 31.2176H132.104C131.92 31.351 131.829 31.5176 131.829 31.7176H131.079V31.7926C131.079 31.9593 131.137 32.101 131.254 32.2176C131.337 32.3343 131.504 32.4176 131.754 32.4676H132.354C132.604 32.4176 132.82 32.3343 133.004 32.2176C133.154 32.0843 133.295 31.9176 133.429 31.7176H133.554C133.587 31.6343 133.62 31.5593 133.654 31.4926C133.687 31.4093 133.712 31.3176 133.729 31.2176H133.529C133.529 31.1843 133.529 31.1593 133.529 31.1426C133.545 31.126 133.554 31.1093 133.554 31.0926H133.579V30.9676H133.879C133.895 30.901 133.904 30.8426 133.904 30.7926C133.904 30.726 133.904 30.6593 133.904 30.5926H133.479L132.254 30.8676C132.187 30.8843 132.12 30.901 132.054 30.9176C132.004 30.9343 131.954 30.951 131.904 30.9676C131.854 30.9843 131.804 31.001 131.754 31.0176C131.704 31.0343 131.662 31.0593 131.629 31.0926H131.604C131.57 31.1093 131.537 31.126 131.504 31.1426C131.47 31.1593 131.437 31.1843 131.404 31.2176ZM131.529 32.4676H130.904C130.97 32.4843 131.07 32.4926 131.204 32.4926C131.254 32.4926 131.304 32.4926 131.354 32.4926C131.42 32.4926 131.479 32.4843 131.529 32.4676ZM153.005 24.8426H153.955V25.3426H153.905V25.8426H153.03V26.2176H153.255V26.7176H153.055V27.2176H152.605V27.3426H151.03V27.5176C151.03 27.551 151.022 27.5843 151.005 27.6176C151.005 27.651 150.997 27.6843 150.98 27.7176H151.555C151.472 28.0343 151.255 28.1926 150.905 28.1926H147.68C147.614 28.1926 147.547 28.1926 147.48 28.1926C147.43 28.1926 147.38 28.201 147.33 28.2176H148.33C148.247 28.2343 148.172 28.251 148.105 28.2676C148.039 28.2843 147.964 28.3093 147.88 28.3426H148.705C148.655 28.3593 148.58 28.401 148.48 28.4676H148.955L148.805 28.5926H148.93C148.83 28.6926 148.755 28.8176 148.705 28.9676H147.955C147.922 29.0343 147.905 29.076 147.905 29.0926H147.655C147.655 29.1093 147.647 29.126 147.63 29.1426C147.63 29.1593 147.63 29.1843 147.63 29.2176H147.93C147.914 29.251 147.905 29.2926 147.905 29.3426C147.905 29.376 147.897 29.4176 147.88 29.4676H148.03V29.8426H147.68V30.0926H148.03V30.4676H148.405V30.9676H147.855V31.0926H147.455V31.2176H148.955V31.5926H148.205V31.8426H148.455V32.0926H147.88V32.5926H147.555V32.7176H147.23V33.0926H148.08V33.4676H147.63V33.8426H148.08V33.9676H148.03V34.2176H147.48V34.4676H147.88V34.9676H147.98V35.3426H147.88C147.847 35.576 147.739 35.7426 147.555 35.8426H147.33C147.247 35.9093 147.13 35.9426 146.98 35.9426H142.23C142.08 35.9426 141.964 35.9093 141.88 35.8426H142.105C141.922 35.7426 141.814 35.576 141.78 35.3426H141.88V34.9676H141.78V34.4676H141.38V34.2176H141.93V33.9676H141.98V33.8426H141.53V33.4676H141.98V33.0926H141.13V32.7176H141.455V32.5926H141.78V32.0926H142.355V31.8426H142.105V31.5926H142.855V31.2176H141.355V31.0926H141.755V30.9676H142.305V30.4676H141.93V30.0926H141.58V29.8426H141.93V29.4676H141.78V29.2176H141.48V29.0926H141.73V28.9676H142.48V28.5926H142.355V28.4676H141.905V28.3426H141.08V28.2176H140.08V27.7176H139.53V27.3426H141.105V27.2176H141.555V26.7176H141.755V26.2176H141.53V25.8426H142.405V25.3426H142.455V24.8426H141.505V24.4676H142.305V23.9676H141.53V23.8426H141.78V23.6176C141.78 23.5343 141.797 23.4426 141.83 23.3426H141.805C141.922 23.076 142.13 22.9426 142.43 22.9426H146.805C147.089 22.9426 147.289 23.076 147.405 23.3426H147.455C147.489 23.4426 147.505 23.5343 147.505 23.6176V23.8426H147.255V23.9676H148.03V24.0426L148.13 23.9676H148.18C148.214 23.9343 148.247 23.9093 148.28 23.8926C148.314 23.876 148.339 23.8593 148.355 23.8426H148.405C148.739 23.626 149.064 23.4593 149.38 23.3426H149.43C149.764 23.2093 150.097 23.1093 150.43 23.0426C150.764 22.976 151.114 22.9426 151.48 22.9426H152.68C152.98 22.9426 153.189 23.076 153.305 23.3426H153.255C153.289 23.4426 153.305 23.5343 153.305 23.6176V23.8426H153.28V23.9676H153.23V24.4676H153.005V24.8426ZM166.595 33.0926H165.995V33.3426H166.895V33.5926H167.72V33.9676H167.145V34.3426H168.82V34.7176H166.095V35.2176H166.295V35.2676C166.295 35.301 166.286 35.326 166.27 35.3426C166.236 35.5093 166.178 35.6343 166.095 35.7176H165.895C165.828 35.7843 165.778 35.826 165.745 35.8426H166.595C166.511 35.9093 166.395 35.9426 166.245 35.9426H163.42C163.136 35.9426 162.853 35.9343 162.57 35.9176C162.303 35.901 162.045 35.876 161.795 35.8426H160.945C160.828 35.826 160.711 35.8093 160.595 35.7926C160.478 35.7593 160.353 35.7343 160.22 35.7176H160.42C160.203 35.6676 159.995 35.6093 159.795 35.5426C159.611 35.476 159.428 35.4093 159.245 35.3426H159.27C159.22 35.3093 159.17 35.2843 159.12 35.2676C159.07 35.251 159.028 35.2343 158.995 35.2176H158.795C158.661 35.1343 158.528 35.0593 158.395 34.9926C158.261 34.9093 158.128 34.8176 157.995 34.7176H160.745C160.678 34.651 160.603 34.5926 160.52 34.5426C160.453 34.476 160.386 34.4093 160.32 34.3426H158.645L158.32 33.9676H158.92C158.87 33.901 158.82 33.8426 158.77 33.7926C158.736 33.726 158.703 33.6593 158.67 33.5926H157.845L157.695 33.3426H156.795C156.778 33.3093 156.761 33.2676 156.745 33.2176C156.728 33.1676 156.703 33.126 156.67 33.0926H157.295L157.145 32.7176H157.645L157.57 32.4676C157.536 32.3676 157.52 32.2843 157.52 32.2176H159.495C159.478 32.151 159.461 32.0926 159.445 32.0426C159.445 31.976 159.445 31.9093 159.445 31.8426H156.595C156.595 31.8093 156.586 31.7843 156.57 31.7676C156.57 31.751 156.57 31.7343 156.57 31.7176H156.495C156.495 31.651 156.486 31.5926 156.47 31.5426C156.47 31.476 156.47 31.4093 156.47 31.3426H156.395C156.395 31.276 156.386 31.2176 156.37 31.1676C156.37 31.101 156.37 31.0343 156.37 30.9676H156.72V30.8426H156.495V30.5926H156.295V30.0926H156.595V29.5926H156.295V29.2176H156.52V28.9676H156.545V28.5926H156.67V27.7176H156.72V27.3426H156.845V27.3176H154.87C154.62 27.3176 154.42 27.201 154.27 26.9676H154.645C154.595 26.8676 154.57 26.7593 154.57 26.6426V26.4676H153.77V26.0926H153.945V25.5926H153.82V25.3426H153.87V25.0926H154.245V24.9676H153.62V24.5926H154.37V24.2176H154.22V23.9676H154.045V23.5926H153.895V23.4676H153.82C153.87 23.2176 154.028 23.051 154.295 22.9676H154.445C154.495 22.951 154.561 22.9426 154.645 22.9426H156.62V22.8426H156.72V22.4676H156.52V22.2176H156.495V21.8426H156.395V21.7176H155.795V21.4676H155.22V21.3426H155.42V21.2176H155.995V20.7176H156.22V20.4676H155.42V20.2176H156.645V19.8426H156.52V19.7176H156.245V19.4676H156.495V19.3426H156.245V18.9676H156.47V18.8676C156.47 18.7843 156.486 18.6926 156.52 18.5926H156.845C156.961 18.326 157.17 18.1926 157.47 18.1926H161.845C162.111 18.1926 162.32 18.326 162.47 18.5926H162.145C162.178 18.6926 162.195 18.7843 162.195 18.8676V18.9676H161.97V19.3426H162.22V19.4676H161.97V19.7176H162.245V19.8426H162.37V20.2176H161.145V20.4676H161.945V20.7176H161.72V21.2176H161.145V21.3426H160.945V21.4676H161.52V21.7176H162.12V21.8426H162.22V22.2176H162.245V22.4676H162.445V22.8426H162.345V22.9426H165.495C165.578 22.9426 165.636 22.951 165.67 22.9676H165.52C165.753 23.051 165.911 23.2176 165.995 23.4676H166.07C166.07 23.4843 166.07 23.501 166.07 23.5176C166.086 23.5343 166.095 23.5593 166.095 23.5926H166.245V23.9676H166.42V24.2176H166.57V24.5926H165.82V24.9676H166.445V25.0926H166.07V25.3426H166.02V25.5926H166.145V26.0926H165.97V26.4676H166.77V26.6426C166.77 26.7093 166.761 26.7676 166.745 26.8176C166.728 26.8676 166.703 26.9176 166.67 26.9676H166.32C166.17 27.201 165.97 27.3176 165.72 27.3176H162.57V27.3426H162.445V27.7176H162.395V28.5926H162.27V28.9676H162.245V29.2176H162.02V29.5926H162.32V30.0926H162.02C162.02 30.176 162.02 30.2593 162.02 30.3426C162.036 30.426 162.053 30.5093 162.07 30.5926H162.295C162.328 30.6926 162.361 30.776 162.395 30.8426H162.595L162.67 30.9676H162.32C162.503 31.201 162.786 31.3176 163.17 31.3176H165.445C165.528 31.3176 165.586 31.326 165.62 31.3426H165.695C165.895 31.3926 166.036 31.5176 166.12 31.7176H166.195C166.195 31.7343 166.195 31.751 166.195 31.7676C166.211 31.7843 166.22 31.8093 166.22 31.8426H169.07C169.07 31.8593 169.07 31.8843 169.07 31.9176C169.086 31.9343 169.095 31.9593 169.095 31.9926V32.2176H167.095V32.7176H166.595V33.0926Z" fill="#262626"/>
</svg>
